<svg width="17" height="17" viewBox="0 0 17 17" fill="none" xmlns="http://www.w3.org/2000/svg">
<path d="M8.5 14.8333C10.1797 14.8333 11.7906 14.1661 12.9783 12.9783C14.1661 11.7906 14.8333 10.1797 14.8333 8.49998C14.8333 6.82028 14.1661 5.20937 12.9783 4.02164C11.7906 2.83391 10.1797 2.16665 8.5 2.16665C6.8203 2.16665 5.20939 2.83391 4.02166 4.02164C2.83393 5.20937 2.16667 6.82028 2.16667 8.49998C2.16667 10.1797 2.83393 11.7906 4.02166 12.9783C5.20939 14.1661 6.8203 14.8333 8.5 14.8333ZM8.5 16.4166C4.12763 16.4166 0.583336 12.8724 0.583336 8.49998C0.583336 4.1276 4.12763 0.583313 8.5 0.583313C12.8724 0.583313 16.4167 4.1276 16.4167 8.49998C16.4167 12.8724 12.8724 16.4166 8.5 16.4166ZM6.03792 9.42623L4.06034 8.80952C3.63284 8.6789 3.63046 8.3844 4.15613 8.17302L11.8614 5.19636C12.3087 5.01427 12.562 5.24465 12.4172 5.82177L11.1054 12.0126C11.0135 12.4536 10.7483 12.5589 10.3802 12.3554L8.36067 10.8607L7.41938 11.7696C7.32279 11.863 7.24442 11.9429 7.09559 11.9627C6.94754 11.9833 6.82563 11.939 6.73617 11.6936L6.04742 9.42069L6.03792 9.42623Z" fill="#E0BEA2"/>
</svg>
